<svg width="335" height="239" viewBox="0 0 335 239" fill="none" xmlns="http://www.w3.org/2000/svg">
<g clip-path="url(#clip0_105_6)">
<g filter="url(#filter0_d_105_6)">
<path d="M307.527 2.83899H9.32181C5.74145 2.83899 2.83899 5.74145 2.83899 9.32181V190.748C2.83899 194.328 5.74145 197.23 9.32181 197.23H307.527C311.107 197.23 314.009 194.328 314.009 190.748V9.32181C314.009 5.74145 311.107 2.83899 307.527 2.83899Z" fill="black"/>
</g>
<path d="M307.527 2.83899H9.32181C5.74145 2.83899 2.83899 5.74145 2.83899 9.32181V190.748C2.83899 194.328 5.74145 197.23 9.32181 197.23H307.527C311.107 197.23 314.009 194.328 314.009 190.748V9.32181C314.009 5.74145 311.107 2.83899 307.527 2.83899Z" fill="white"/>
<g filter="url(#filter1_d_105_6)">
<path d="M9.32133 2.83899H307.527C311.107 2.83899 314.009 5.74138 314.009 9.32133V23.574H2.83899V9.32181C2.83899 5.74138 5.74138 2.83899 9.32133 2.83899Z" fill="black"/>
</g>
<path d="M9.32133 2.83899H307.527C311.107 2.83899 314.009 5.74138 314.009 9.32133V23.574H2.83899V9.32181C2.83899 5.74138 5.74138 2.83899 9.32133 2.83899Z" fill="#00252E"/>
<path d="M89.3835 9.31848H27.7974C26.9024 9.31848 26.1768 10.044 26.1768 10.9391V15.4734C26.1768 16.3684 26.9024 17.094 27.7974 17.094H89.3835C90.2785 17.094 91.0041 16.3684 91.0041 15.4734V10.9391C91.0041 10.044 90.2785 9.31848 89.3835 9.31848Z" fill="#E1E8EE"/>
<path d="M292.617 9.96674H283.54C283.182 9.96674 282.892 10.2567 282.892 10.6145V10.615C282.892 10.9727 283.182 11.2627 283.54 11.2627H292.617C292.975 11.2627 293.265 10.9727 293.265 10.615V10.6145C293.265 10.2567 292.975 9.96674 292.617 9.96674Z" fill="#D8D8D8"/>
<path d="M292.617 12.5587H283.54C283.182 12.5587 282.892 12.8487 282.892 13.2065V13.207C282.892 13.5647 283.182 13.8547 283.54 13.8547H292.617C292.975 13.8547 293.265 13.5647 293.265 13.207V13.2065C293.265 12.8487 292.975 12.5587 292.617 12.5587Z" fill="#D8D8D8"/>
<path d="M292.617 15.1507H283.54C283.182 15.1507 282.892 15.4407 282.892 15.7985V15.799C282.892 16.1567 283.182 16.4467 283.54 16.4467H292.617C292.975 16.4467 293.265 16.1567 293.265 15.799V15.7985C293.265 15.4407 292.975 15.1507 292.617 15.1507Z" fill="#D8D8D8"/>
<path d="M41.7354 78.6522C50.3282 78.6522 57.294 71.6895 57.294 63.1007C57.294 54.5118 50.3282 47.5492 41.7354 47.5492C33.1427 47.5492 26.1768 54.5118 26.1768 63.1007C26.1768 71.6895 33.1427 78.6522 41.7354 78.6522Z" fill="url(#paint0_linear_105_6)"/>
<path d="M111.749 51.4372H76.4178C75.8808 51.4372 75.4455 51.8725 75.4455 52.4095V55.6488C75.4455 56.1858 75.8808 56.6211 76.4178 56.6211H111.749C112.286 56.6211 112.721 56.1858 112.721 55.6488V52.4095C112.721 51.8725 112.286 51.4372 111.749 51.4372Z" fill="#E1E8EE"/>
<path d="M204.128 61.8047H76.4178C75.8808 61.8047 75.4455 62.24 75.4455 62.777V63.4243C75.4455 63.9613 75.8808 64.3966 76.4178 64.3966H204.128C204.665 64.3966 205.1 63.9613 205.1 63.4243V62.777C205.1 62.24 204.665 61.8047 204.128 61.8047Z" fill="#E1E8EE"/>
<path d="M193.323 66.9886H76.4178C75.8808 66.9886 75.4455 67.424 75.4455 67.961V68.6083C75.4455 69.1453 75.8808 69.5806 76.4178 69.5806H193.323C193.86 69.5806 194.295 69.1453 194.295 68.6083V67.961C194.295 67.424 193.86 66.9886 193.323 66.9886Z" fill="#E1E8EE"/>
<path d="M182.518 72.1721H76.4178C75.8808 72.1721 75.4455 72.6075 75.4455 73.1445V73.7918C75.4455 74.3288 75.8808 74.7641 76.4178 74.7641H182.518C183.055 74.7641 183.491 74.3288 183.491 73.7918V73.1445C183.491 72.6075 183.055 72.1721 182.518 72.1721Z" fill="#E1E8EE"/>
<path d="M224.548 66.9887C226.696 66.9887 228.437 65.2479 228.437 63.1007C228.437 60.9534 226.696 59.2127 224.548 59.2127C222.4 59.2127 220.659 60.9534 220.659 63.1007C220.659 65.2479 222.4 66.9887 224.548 66.9887Z" fill="#A7B9C8"/>
<path d="M245.293 66.9887C247.441 66.9887 249.182 65.2479 249.182 63.1007C249.182 60.9534 247.441 59.2127 245.293 59.2127C243.145 59.2127 241.403 60.9534 241.403 63.1007C241.403 65.2479 243.145 66.9887 245.293 66.9887Z" fill="#A7B9C8"/>
<path d="M234.921 66.9887C237.069 66.9887 238.81 65.2479 238.81 63.1007C238.81 60.9534 237.069 59.2127 234.921 59.2127C232.773 59.2127 231.031 60.9534 231.031 63.1007C231.031 65.2479 232.773 66.9887 234.921 66.9887Z" fill="#A7B9C8"/>
<path d="M255.665 66.9887C257.813 66.9887 259.554 65.2479 259.554 63.1007C259.554 60.9534 257.813 59.2127 255.665 59.2127C253.517 59.2127 251.776 60.9534 251.776 63.1007C251.776 65.2479 253.517 66.9887 255.665 66.9887Z" fill="#A7B9C8"/>
<path d="M266.038 66.9887C268.186 66.9887 269.927 65.2479 269.927 63.1007C269.927 60.9534 268.186 59.2127 266.038 59.2127C263.89 59.2127 262.148 60.9534 262.148 63.1007C262.148 65.2479 263.89 66.9887 266.038 66.9887Z" fill="#A7B9C8"/>
<path d="M40.7631 120.77C48.8188 120.77 55.3493 114.243 55.3493 106.191C55.3493 98.1387 48.8188 91.6111 40.7631 91.6111C32.7073 91.6111 26.1768 98.1387 26.1768 106.191C26.1768 114.243 32.7073 120.77 40.7631 120.77Z" fill="url(#paint1_linear_105_6)"/>
<path d="M110.776 94.5268H75.445C74.908 94.5268 74.4727 94.9621 74.4727 95.4991V98.7384C74.4727 99.2754 74.908 99.7108 75.445 99.7108H110.776C111.313 99.7108 111.749 99.2754 111.749 98.7384V95.4991C111.749 94.9621 111.313 94.5268 110.776 94.5268Z" fill="#E1E8EE"/>
<path d="M203.155 104.894H75.445C74.908 104.894 74.4727 105.33 74.4727 105.867V106.514C74.4727 107.051 74.908 107.486 75.445 107.486H203.155C203.692 107.486 204.127 107.051 204.127 106.514V105.867C204.127 105.33 203.692 104.894 203.155 104.894Z" fill="#E1E8EE"/>
<path d="M192.35 110.078H75.445C74.908 110.078 74.4727 110.514 74.4727 111.051V111.698C74.4727 112.235 74.908 112.67 75.445 112.67H192.35C192.887 112.67 193.322 112.235 193.322 111.698V111.051C193.322 110.514 192.887 110.078 192.35 110.078Z" fill="#E1E8EE"/>
<path d="M181.545 115.262H75.445C74.908 115.262 74.4727 115.697 74.4727 116.234V116.881C74.4727 117.418 74.908 117.854 75.445 117.854H181.545C182.082 117.854 182.518 117.418 182.518 116.881V116.234C182.518 115.697 182.082 115.262 181.545 115.262Z" fill="#E1E8EE"/>
<path d="M223.576 110.079C225.724 110.079 227.465 108.338 227.465 106.191C227.465 104.043 225.724 102.303 223.576 102.303C221.428 102.303 219.686 104.043 219.686 106.191C219.686 108.338 221.428 110.079 223.576 110.079Z" fill="#A7B9C8"/>
<path d="M244.321 110.079C246.469 110.079 248.21 108.338 248.21 106.191C248.21 104.043 246.469 102.303 244.321 102.303C242.172 102.303 240.431 104.043 240.431 106.191C240.431 108.338 242.172 110.079 244.321 110.079Z" fill="#A7B9C8"/>
<path d="M233.948 110.079C236.096 110.079 237.838 108.338 237.838 106.191C237.838 104.043 236.096 102.303 233.948 102.303C231.8 102.303 230.059 104.043 230.059 106.191C230.059 108.338 231.8 110.079 233.948 110.079Z" fill="#A7B9C8"/>
<path d="M40.7631 167.101C48.8188 167.101 55.3493 160.573 55.3493 152.521C55.3493 144.469 48.8188 137.941 40.7631 137.941C32.7073 137.941 26.1768 144.469 26.1768 152.521C26.1768 160.573 32.7073 167.101 40.7631 167.101Z" fill="url(#paint2_linear_105_6)"/>
<path d="M110.776 140.857H75.445C74.908 140.857 74.4727 141.292 74.4727 141.829V145.069C74.4727 145.606 74.908 146.041 75.445 146.041H110.776C111.313 146.041 111.749 145.606 111.749 145.069V141.829C111.749 141.292 111.313 140.857 110.776 140.857Z" fill="#E1E8EE"/>
<path d="M203.155 151.225H75.445C74.908 151.225 74.4727 151.66 74.4727 152.197V152.844C74.4727 153.381 74.908 153.817 75.445 153.817H203.155C203.692 153.817 204.127 153.381 204.127 152.844V152.197C204.127 151.66 203.692 151.225 203.155 151.225Z" fill="#E1E8EE"/>
<path d="M192.35 156.409H75.445C74.908 156.409 74.4727 156.844 74.4727 157.381V158.028C74.4727 158.565 74.908 159.001 75.445 159.001H192.35C192.887 159.001 193.322 158.565 193.322 158.028V157.381C193.322 156.844 192.887 156.409 192.35 156.409Z" fill="#E1E8EE"/>
<path d="M181.545 161.592H75.445C74.908 161.592 74.4727 162.027 74.4727 162.564V163.212C74.4727 163.749 74.908 164.184 75.445 164.184H181.545C182.082 164.184 182.518 163.749 182.518 163.212V162.564C182.518 162.027 182.082 161.592 181.545 161.592Z" fill="#E1E8EE"/>
<path d="M223.576 156.409C225.724 156.409 227.465 154.668 227.465 152.521C227.465 150.374 225.724 148.633 223.576 148.633C221.428 148.633 219.686 150.374 219.686 152.521C219.686 154.668 221.428 156.409 223.576 156.409Z" fill="#A7B9C8"/>
<path d="M244.321 156.409C246.469 156.409 248.21 154.668 248.21 152.521C248.21 150.374 246.469 148.633 244.321 148.633C242.172 148.633 240.431 150.374 240.431 152.521C240.431 154.668 242.172 156.409 244.321 156.409Z" fill="#A7B9C8"/>
<path d="M233.948 156.409C236.096 156.409 237.838 154.668 237.838 152.521C237.838 150.374 236.096 148.633 233.948 148.633C231.8 148.633 230.059 150.374 230.059 152.521C230.059 154.668 231.8 156.409 233.948 156.409Z" fill="#A7B9C8"/>
<path d="M254.693 156.409C256.841 156.409 258.582 154.668 258.582 152.521C258.582 150.374 256.841 148.633 254.693 148.633C252.545 148.633 250.803 150.374 250.803 152.521C250.803 154.668 252.545 156.409 254.693 156.409Z" fill="#A7B9C8"/>
<g filter="url(#filter2_d_105_6)">
<path d="M233.969 70.2279H326.629C329.684 70.2279 332.161 72.7045 332.161 75.7597V230.577C332.161 233.632 329.684 236.109 326.629 236.109H233.969C230.914 236.109 228.437 233.632 228.437 230.577V75.7597C228.437 72.7045 230.914 70.2279 233.969 70.2279Z" fill="black"/>
</g>
<path d="M233.969 70.2279H326.629C329.684 70.2279 332.161 72.7045 332.161 75.7597V230.577C332.161 233.632 329.684 236.109 326.629 236.109H233.969C230.914 236.109 228.437 233.632 228.437 230.577V75.7597C228.437 72.7045 230.914 70.2279 233.969 70.2279Z" fill="white"/>
<g filter="url(#filter3_d_105_6)">
<path d="M233.969 70.2279H326.629C329.684 70.2279 332.161 72.7045 332.161 75.7597V87.9219H228.437V75.7597C228.437 72.7045 230.914 70.2279 233.969 70.2279Z" fill="black"/>
</g>
<path d="M233.969 70.2279H326.629C329.684 70.2279 332.161 72.7045 332.161 75.7597V87.9219H228.437V75.7597C228.437 72.7045 230.914 70.2279 233.969 70.2279Z" fill="#00252E"/>
<path d="M271.18 76.3105H240.236C239.472 76.3105 238.853 76.9297 238.853 77.6935V81.5626C238.853 82.3264 239.472 82.9456 240.236 82.9456H271.18C271.944 82.9456 272.563 82.3264 272.563 81.5626V77.6935C272.563 76.9297 271.944 76.3105 271.18 76.3105Z" fill="#E1E8EE"/>
<path d="M320.544 76.8636H312.799C312.494 76.8636 312.246 77.1111 312.246 77.4165C312.246 77.7218 312.494 77.9694 312.799 77.9694H320.544C320.849 77.9694 321.097 77.7218 321.097 77.4165C321.097 77.1111 320.849 76.8636 320.544 76.8636Z" fill="#D8D8D8"/>
<path d="M320.544 79.0751H312.799C312.494 79.0751 312.246 79.3227 312.246 79.628C312.246 79.9334 312.494 80.1809 312.799 80.1809H320.544C320.849 80.1809 321.097 79.9334 321.097 79.628C321.097 79.3227 320.849 79.0751 320.544 79.0751Z" fill="#D8D8D8"/>
<path d="M320.544 81.2872H312.799C312.494 81.2872 312.246 81.5347 312.246 81.8401C312.246 82.1454 312.494 82.393 312.799 82.393H320.544C320.849 82.393 321.097 82.1454 321.097 81.8401C321.097 81.5347 320.849 81.2872 320.544 81.2872Z" fill="#D8D8D8"/>
<path d="M243.672 114.938C246.358 114.938 248.535 112.762 248.535 110.078C248.535 107.394 246.358 105.218 243.672 105.218C240.987 105.218 238.81 107.394 238.81 110.078C238.81 112.762 240.987 114.938 243.672 114.938Z" fill="url(#paint3_linear_105_6)"/>
<path d="M272.06 106.19H254.019C253.854 106.19 253.72 106.324 253.72 106.488V107.62C253.72 107.785 253.854 107.918 254.019 107.918H272.06C272.225 107.918 272.358 107.785 272.358 107.62V106.488C272.358 106.324 272.225 106.19 272.06 106.19Z" fill="#E1E8EE"/>
<path d="M318.25 109.646H254.019C253.854 109.646 253.72 109.78 253.72 109.944V110.212C253.72 110.377 253.854 110.51 254.019 110.51H318.25C318.414 110.51 318.548 110.377 318.548 110.212V109.944C318.548 109.78 318.414 109.646 318.25 109.646Z" fill="#E1E8EE"/>
<path d="M312.847 111.374H254.019C253.854 111.374 253.72 111.508 253.72 111.672V111.94C253.72 112.105 253.854 112.238 254.019 112.238H312.847C313.012 112.238 313.146 112.105 313.146 111.94V111.672C313.146 111.508 313.012 111.374 312.847 111.374Z" fill="#E1E8EE"/>
<path d="M307.445 113.102H254.019C253.854 113.102 253.72 113.235 253.72 113.4V113.668C253.72 113.832 253.854 113.966 254.019 113.966H307.445C307.609 113.966 307.743 113.832 307.743 113.668V113.4C307.743 113.235 307.609 113.102 307.445 113.102Z" fill="#E1E8EE"/>
<path d="M243.672 159.648C246.358 159.648 248.535 157.473 248.535 154.788C248.535 152.104 246.358 149.929 243.672 149.929C240.987 149.929 238.81 152.104 238.81 154.788C238.81 157.473 240.987 159.648 243.672 159.648Z" fill="url(#paint4_linear_105_6)"/>
<path d="M272.06 150.9H254.019C253.854 150.9 253.72 151.034 253.72 151.199V152.33C253.72 152.495 253.854 152.628 254.019 152.628H272.06C272.225 152.628 272.358 152.495 272.358 152.33V151.199C272.358 151.034 272.225 150.9 272.06 150.9Z" fill="#E1E8EE"/>
<path d="M318.25 154.356H254.019C253.854 154.356 253.72 154.49 253.72 154.655V154.922C253.72 155.087 253.854 155.22 254.019 155.22H318.25C318.414 155.22 318.548 155.087 318.548 154.922V154.655C318.548 154.49 318.414 154.356 318.25 154.356Z" fill="#E1E8EE"/>
<path d="M312.847 156.084H254.019C253.854 156.084 253.72 156.218 253.72 156.383V156.65C253.72 156.815 253.854 156.948 254.019 156.948H312.847C313.012 156.948 313.146 156.815 313.146 156.65V156.383C313.146 156.218 313.012 156.084 312.847 156.084Z" fill="#E1E8EE"/>
<path d="M307.445 157.812H254.019C253.854 157.812 253.72 157.945 253.72 158.11V158.378C253.72 158.543 253.854 158.676 254.019 158.676H307.445C307.609 158.676 307.743 158.543 307.743 158.378V158.11C307.743 157.945 307.609 157.812 307.445 157.812Z" fill="#E1E8EE"/>
<path d="M272.06 121.094H254.019C253.854 121.094 253.72 121.227 253.72 121.392V122.524C253.72 122.689 253.854 122.822 254.019 122.822H272.06C272.225 122.822 272.358 122.689 272.358 122.524V121.392C272.358 121.227 272.225 121.094 272.06 121.094Z" fill="#E1E8EE"/>
<path d="M318.25 124.55H254.019C253.854 124.55 253.72 124.683 253.72 124.848V125.116C253.72 125.281 253.854 125.414 254.019 125.414H318.25C318.414 125.414 318.548 125.281 318.548 125.116V124.848C318.548 124.683 318.414 124.55 318.25 124.55Z" fill="#E1E8EE"/>
<path d="M312.847 126.278H254.019C253.854 126.278 253.72 126.411 253.72 126.576V126.844C253.72 127.009 253.854 127.142 254.019 127.142H312.847C313.012 127.142 313.146 127.009 313.146 126.844V126.576C313.146 126.411 313.012 126.278 312.847 126.278Z" fill="#E1E8EE"/>
<path d="M307.445 128.005H254.019C253.854 128.005 253.72 128.139 253.72 128.304V128.571C253.72 128.736 253.854 128.869 254.019 128.869H307.445C307.609 128.869 307.743 128.736 307.743 128.571V128.304C307.743 128.139 307.609 128.005 307.445 128.005Z" fill="#E1E8EE"/>
<path d="M243.672 129.842C246.358 129.842 248.535 127.666 248.535 124.982C248.535 122.298 246.358 120.122 243.672 120.122C240.987 120.122 238.81 122.298 238.81 124.982C238.81 127.666 240.987 129.842 243.672 129.842Z" fill="url(#paint5_linear_105_6)"/>
<path d="M272.06 165.804H254.019C253.854 165.804 253.72 165.937 253.72 166.102V167.234C253.72 167.398 253.854 167.532 254.019 167.532H272.06C272.225 167.532 272.358 167.398 272.358 167.234V166.102C272.358 165.937 272.225 165.804 272.06 165.804Z" fill="#E1E8EE"/>
<path d="M318.25 169.26H254.019C253.854 169.26 253.72 169.393 253.72 169.558V169.826C253.72 169.99 253.854 170.124 254.019 170.124H318.25C318.414 170.124 318.548 169.99 318.548 169.826V169.558C318.548 169.393 318.414 169.26 318.25 169.26Z" fill="#E1E8EE"/>
<path d="M312.847 170.988H254.019C253.854 170.988 253.72 171.121 253.72 171.286V171.554C253.72 171.718 253.854 171.852 254.019 171.852H312.847C313.012 171.852 313.146 171.718 313.146 171.554V171.286C313.146 171.121 313.012 170.988 312.847 170.988Z" fill="#E1E8EE"/>
<path d="M307.445 172.715H254.019C253.854 172.715 253.72 172.849 253.72 173.013V173.281C253.72 173.446 253.854 173.579 254.019 173.579H307.445C307.609 173.579 307.743 173.446 307.743 173.281V173.013C307.743 172.849 307.609 172.715 307.445 172.715Z" fill="#E1E8EE"/>
<path d="M243.672 174.552C246.358 174.552 248.535 172.376 248.535 169.692C248.535 167.008 246.358 164.832 243.672 164.832C240.987 164.832 238.81 167.008 238.81 169.692C238.81 172.376 240.987 174.552 243.672 174.552Z" fill="url(#paint6_linear_105_6)"/>
<path d="M272.06 135.997H254.019C253.854 135.997 253.72 136.131 253.72 136.295V137.427C253.72 137.592 253.854 137.725 254.019 137.725H272.06C272.225 137.725 272.358 137.592 272.358 137.427V136.295C272.358 136.131 272.225 135.997 272.06 135.997Z" fill="#E1E8EE"/>
<path d="M318.25 139.453H254.019C253.854 139.453 253.72 139.587 253.72 139.751V140.019C253.72 140.184 253.854 140.317 254.019 140.317H318.25C318.414 140.317 318.548 140.184 318.548 140.019V139.751C318.548 139.587 318.414 139.453 318.25 139.453Z" fill="#E1E8EE"/>
<path d="M312.847 141.181H254.019C253.854 141.181 253.72 141.315 253.72 141.479V141.747C253.72 141.912 253.854 142.045 254.019 142.045H312.847C313.012 142.045 313.146 141.912 313.146 141.747V141.479C313.146 141.315 313.012 141.181 312.847 141.181Z" fill="#E1E8EE"/>
<path d="M307.445 142.909H254.019C253.854 142.909 253.72 143.042 253.72 143.207V143.475C253.72 143.639 253.854 143.773 254.019 143.773H307.445C307.609 143.773 307.743 143.639 307.743 143.475V143.207C307.743 143.042 307.609 142.909 307.445 142.909Z" fill="#E1E8EE"/>
<path d="M243.672 144.745C246.358 144.745 248.535 142.569 248.535 139.885C248.535 137.201 246.358 135.025 243.672 135.025C240.987 135.025 238.81 137.201 238.81 139.885C238.81 142.569 240.987 144.745 243.672 144.745Z" fill="url(#paint7_linear_105_6)"/>
<path d="M272.06 180.707H254.019C253.854 180.707 253.72 180.84 253.72 181.005V182.137C253.72 182.302 253.854 182.435 254.019 182.435H272.06C272.225 182.435 272.358 182.302 272.358 182.137V181.005C272.358 180.84 272.225 180.707 272.06 180.707Z" fill="#E1E8EE"/>
<path d="M318.25 184.163H254.019C253.854 184.163 253.72 184.296 253.72 184.461V184.729C253.72 184.894 253.854 185.027 254.019 185.027H318.25C318.414 185.027 318.548 184.894 318.548 184.729V184.461C318.548 184.296 318.414 184.163 318.25 184.163Z" fill="#E1E8EE"/>
<path d="M312.847 185.891H254.019C253.854 185.891 253.72 186.024 253.72 186.189V186.457C253.72 186.622 253.854 186.755 254.019 186.755H312.847C313.012 186.755 313.146 186.622 313.146 186.457V186.189C313.146 186.024 313.012 185.891 312.847 185.891Z" fill="#E1E8EE"/>
<path d="M307.445 187.618H254.019C253.854 187.618 253.72 187.752 253.72 187.917V188.184C253.72 188.349 253.854 188.482 254.019 188.482H307.445C307.609 188.482 307.743 188.349 307.743 188.184V187.917C307.743 187.752 307.609 187.618 307.445 187.618Z" fill="#E1E8EE"/>
<path d="M243.672 189.455C246.358 189.455 248.535 187.279 248.535 184.595C248.535 181.911 246.358 179.735 243.672 179.735C240.987 179.735 238.81 181.911 238.81 184.595C238.81 187.279 240.987 189.455 243.672 189.455Z" fill="url(#paint8_linear_105_6)"/>
<path d="M243.672 204.359C246.358 204.359 248.535 202.183 248.535 199.499C248.535 196.815 246.358 194.639 243.672 194.639C240.987 194.639 238.81 196.815 238.81 199.499C238.81 202.183 240.987 204.359 243.672 204.359Z" fill="url(#paint9_linear_105_6)"/>
<path d="M272.06 195.611H254.019C253.854 195.611 253.72 195.744 253.72 195.909V197.041C253.72 197.205 253.854 197.339 254.019 197.339H272.06C272.225 197.339 272.358 197.205 272.358 197.041V195.909C272.358 195.744 272.225 195.611 272.06 195.611Z" fill="#E1E8EE"/>
<path d="M318.25 199.067H254.019C253.854 199.067 253.72 199.2 253.72 199.365V199.633C253.72 199.797 253.854 199.931 254.019 199.931H318.25C318.414 199.931 318.548 199.797 318.548 199.633V199.365C318.548 199.2 318.414 199.067 318.25 199.067Z" fill="#E1E8EE"/>
<path d="M312.847 200.795H254.019C253.854 200.795 253.72 200.928 253.72 201.093V201.361C253.72 201.525 253.854 201.659 254.019 201.659H312.847C313.012 201.659 313.146 201.525 313.146 201.361V201.093C313.146 200.928 313.012 200.795 312.847 200.795Z" fill="#E1E8EE"/>
<path d="M307.445 202.522H254.019C253.854 202.522 253.72 202.656 253.72 202.82V203.088C253.72 203.253 253.854 203.386 254.019 203.386H307.445C307.609 203.386 307.743 203.253 307.743 203.088V202.82C307.743 202.656 307.609 202.522 307.445 202.522Z" fill="#E1E8EE"/>
<path d="M272.06 210.514H254.019C253.854 210.514 253.72 210.647 253.72 210.812V211.944C253.72 212.108 253.854 212.242 254.019 212.242H272.06C272.225 212.242 272.358 212.108 272.358 211.944V210.812C272.358 210.647 272.225 210.514 272.06 210.514Z" fill="#E1E8EE"/>
<path d="M318.25 213.97H254.019C253.854 213.97 253.72 214.103 253.72 214.268V214.536C253.72 214.7 253.854 214.834 254.019 214.834H318.25C318.414 214.834 318.548 214.7 318.548 214.536V214.268C318.548 214.103 318.414 213.97 318.25 213.97Z" fill="#E1E8EE"/>
<path d="M312.847 215.698H254.019C253.854 215.698 253.72 215.831 253.72 215.996V216.264C253.72 216.428 253.854 216.562 254.019 216.562H312.847C313.012 216.562 313.146 216.428 313.146 216.264V215.996C313.146 215.831 313.012 215.698 312.847 215.698Z" fill="#E1E8EE"/>
<path d="M307.445 217.425H254.019C253.854 217.425 253.72 217.559 253.72 217.724V217.991C253.72 218.156 253.854 218.289 254.019 218.289H307.445C307.609 218.289 307.743 218.156 307.743 217.991V217.724C307.743 217.559 307.609 217.425 307.445 217.425Z" fill="#E1E8EE"/>
<path d="M243.672 219.262C246.358 219.262 248.535 217.086 248.535 214.402C248.535 211.718 246.358 209.542 243.672 209.542C240.987 209.542 238.81 211.718 238.81 214.402C238.81 217.086 240.987 219.262 243.672 219.262Z" fill="url(#paint10_linear_105_6)"/>
</g>
<defs>
<filter id="filter0_d_105_6" x="-4.16101" y="-4.16101" width="325.171" height="208.391" filterUnits="userSpaceOnUse" color-interpolation-filters="sRGB">
<feFlood flood-opacity="0" result="BackgroundImageFix"/>
<feColorMatrix in="SourceAlpha" type="matrix" values="0 0 0 0 0 0 0 0 0 0 0 0 0 0 0 0 0 0 127 0" result="hardAlpha"/>
<feOffset/>
<feGaussianBlur stdDeviation="3.5"/>
<feColorMatrix type="matrix" values="0 0 0 0 0 0 0 0 0 0.145098 0 0 0 0 0.180392 0 0 0 0.181839 0"/>
<feBlend mode="normal" in2="BackgroundImageFix" result="effect1_dropShadow_105_6"/>
<feBlend mode="normal" in="SourceGraphic" in2="effect1_dropShadow_105_6" result="shape"/>
</filter>
<filter id="filter1_d_105_6" x="-4.16101" y="-4.16101" width="325.17" height="34.735" filterUnits="userSpaceOnUse" color-interpolation-filters="sRGB">
<feFlood flood-opacity="0" result="BackgroundImageFix"/>
<feColorMatrix in="SourceAlpha" type="matrix" values="0 0 0 0 0 0 0 0 0 0 0 0 0 0 0 0 0 0 127 0" result="hardAlpha"/>
<feOffset/>
<feGaussianBlur stdDeviation="3.5"/>
<feColorMatrix type="matrix" values="0 0 0 0 0 0 0 0 0 0.145098 0 0 0 0 0.180392 0 0 0 0.181839 0"/>
<feBlend mode="normal" in2="BackgroundImageFix" result="effect1_dropShadow_105_6"/>
<feBlend mode="normal" in="SourceGraphic" in2="effect1_dropShadow_105_6" result="shape"/>
</filter>
<filter id="filter2_d_105_6" x="222.437" y="64.2279" width="115.724" height="177.881" filterUnits="userSpaceOnUse" color-interpolation-filters="sRGB">
<feFlood flood-opacity="0" result="BackgroundImageFix"/>
<feColorMatrix in="SourceAlpha" type="matrix" values="0 0 0 0 0 0 0 0 0 0 0 0 0 0 0 0 0 0 127 0" result="hardAlpha"/>
<feOffset/>
<feGaussianBlur stdDeviation="3"/>
<feColorMatrix type="matrix" values="0 0 0 0 0 0 0 0 0 0.145098 0 0 0 0 0.180392 0 0 0 0.181839 0"/>
<feBlend mode="normal" in2="BackgroundImageFix" result="effect1_dropShadow_105_6"/>
<feBlend mode="normal" in="SourceGraphic" in2="effect1_dropShadow_105_6" result="shape"/>
</filter>
<filter id="filter3_d_105_6" x="222.437" y="64.2279" width="115.724" height="29.694" filterUnits="userSpaceOnUse" color-interpolation-filters="sRGB">
<feFlood flood-opacity="0" result="BackgroundImageFix"/>
<feColorMatrix in="SourceAlpha" type="matrix" values="0 0 0 0 0 0 0 0 0 0 0 0 0 0 0 0 0 0 127 0" result="hardAlpha"/>
<feOffset/>
<feGaussianBlur stdDeviation="3"/>
<feColorMatrix type="matrix" values="0 0 0 0 0 0 0 0 0 0.145098 0 0 0 0 0.180392 0 0 0 0.181839 0"/>
<feBlend mode="normal" in2="BackgroundImageFix" result="effect1_dropShadow_105_6"/>
<feBlend mode="normal" in="SourceGraphic" in2="effect1_dropShadow_105_6" result="shape"/>
</filter>
<linearGradient id="paint0_linear_105_6" x1="30.7856" y1="40.594" x2="49.81" y2="84.6943" gradientUnits="userSpaceOnUse">
<stop stop-color="#FAD961"/>
<stop offset="1" stop-color="#FF52C1"/>
</linearGradient>
<linearGradient id="paint1_linear_105_6" x1="40.7631" y1="91.6111" x2="40.7631" y2="120.77" gradientUnits="userSpaceOnUse">
<stop stop-color="#00C7FA"/>
<stop offset="1" stop-color="#007DFA"/>
</linearGradient>
<linearGradient id="paint2_linear_105_6" x1="34.629" y1="137.941" x2="52.4779" y2="170.386" gradientUnits="userSpaceOnUse">
<stop stop-color="#FF52C1"/>
<stop offset="1" stop-color="#9952FF"/>
</linearGradient>
<linearGradient id="paint3_linear_105_6" x1="240.25" y1="103.045" x2="246.195" y2="116.826" gradientUnits="userSpaceOnUse">
<stop stop-color="#FAD961"/>
<stop offset="1" stop-color="#FF52C1"/>
</linearGradient>
<linearGradient id="paint4_linear_105_6" x1="240.25" y1="147.755" x2="246.195" y2="161.537" gradientUnits="userSpaceOnUse">
<stop stop-color="#FAD961"/>
<stop offset="1" stop-color="#FF52C1"/>
</linearGradient>
<linearGradient id="paint5_linear_105_6" x1="243.672" y1="120.122" x2="243.672" y2="129.842" gradientUnits="userSpaceOnUse">
<stop stop-color="#00C7FA"/>
<stop offset="1" stop-color="#007DFA"/>
</linearGradient>
<linearGradient id="paint6_linear_105_6" x1="243.672" y1="164.832" x2="243.672" y2="174.552" gradientUnits="userSpaceOnUse">
<stop stop-color="#00C7FA"/>
<stop offset="1" stop-color="#007DFA"/>
</linearGradient>
<linearGradient id="paint7_linear_105_6" x1="241.628" y1="135.025" x2="247.577" y2="145.84" gradientUnits="userSpaceOnUse">
<stop stop-color="#FF52C1"/>
<stop offset="1" stop-color="#9952FF"/>
</linearGradient>
<linearGradient id="paint8_linear_105_6" x1="241.628" y1="179.735" x2="247.577" y2="190.55" gradientUnits="userSpaceOnUse">
<stop stop-color="#FF52C1"/>
<stop offset="1" stop-color="#9952FF"/>
</linearGradient>
<linearGradient id="paint9_linear_105_6" x1="240.25" y1="192.465" x2="246.195" y2="206.247" gradientUnits="userSpaceOnUse">
<stop stop-color="#FAD961"/>
<stop offset="1" stop-color="#FF52C1"/>
</linearGradient>
<linearGradient id="paint10_linear_105_6" x1="243.672" y1="209.542" x2="243.672" y2="219.262" gradientUnits="userSpaceOnUse">
<stop stop-color="#00C7FA"/>
<stop offset="1" stop-color="#007DFA"/>
</linearGradient>
<clipPath id="clip0_105_6">
<rect width="335" height="238.948" fill="white"/>
</clipPath>
</defs>
</svg>
